<?xml version="1.0" encoding="UTF-8" standalone="no"?>
<svg
   version="1.1"
   viewBox="0.00 0.00 285.00 298.00"
   id="svg24"
   sodipodi:docname="icono1.svg"
   inkscape:version="1.2.2 (732a01da63, 2022-12-09, custom)"
   xmlns:inkscape="http://www.inkscape.org/namespaces/inkscape"
   xmlns:sodipodi="http://sodipodi.sourceforge.net/DTD/sodipodi-0.dtd"
   xmlns="http://www.w3.org/2000/svg"
   xmlns:svg="http://www.w3.org/2000/svg">
  <defs
     id="defs28" />
  <sodipodi:namedview
     id="namedview26"
     pagecolor="#ffffff"
     bordercolor="#666666"
     borderopacity="1.0"
     inkscape:showpageshadow="2"
     inkscape:pageopacity="0.0"
     inkscape:pagecheckerboard="0"
     inkscape:deskcolor="#d1d1d1"
     showgrid="false"
     inkscape:zoom="1.4142136"
     inkscape:cx="219.2031"
     inkscape:cy="116.31907"
     inkscape:window-width="1306"
     inkscape:window-height="704"
     inkscape:window-x="0"
     inkscape:window-y="0"
     inkscape:window-maximized="1"
     inkscape:current-layer="svg24" />
  <path
     fill="#bca177"
     d="m 93.750226,210.65064 q 3.69,-17.93 9.900004,-35.15 c 11.22,-31.12 38.04,-50.52 69.3,-58.69 a 0.28,0.28 0 0 1 0.2,0.52 c -21.96,11.53 -42.66,29.98 -52.25,53.41 -11.95,29.19 -13.98,64.25 -10.02,95.16 q 0.07,0.55 -0.46,0.38 c -49.160004,-16.17 -82.490004,-62.45 -82.040004,-114.1 0.54,-63.299998 50.7,-115.499998 114.010004,-118.179998 77.77,-3.29 138.09,67.529998 121.84,143.949998 -13.37,62.91 -72.97,102.4 -136.15,92.62 q -0.52,-0.08 -0.68,-0.58 -6.99,-20.76 -7.66,-42.68 -0.01,-0.52 0.51,-0.5 34.7,1.05 60.5,-21.48 c 11.85,-10.35 16.76,-24.44 19.27,-39.7 3.87,-23.5 6.61,-45.29 18.93,-66.189998 a 0.63,0.64 26.8 0 0 -0.29,-0.9 c -28.18,-12.42 -74.06,-11.42 -101.6,3.019998 -24.200004,12.69 -40.510004,38.15 -38.920004,66.15 q 1.28,22.65 15.19,43.03 0.31,0.44 0.42,-0.09 z"
     id="path22"
     style="stroke-width:0;stroke-dasharray:none" />
</svg>
