<?xml version="1.0" encoding="UTF-8" standalone="no"?>
<svg
   version="1.1"
   viewBox="0 0 106.74205 106.65583"
   id="svg42"
   sodipodi:docname="icono_instagram.svg"
   inkscape:version="1.2.2 (732a01da63, 2022-12-09, custom)"
   width="106.74205"
   height="106.65583"
   xmlns:inkscape="http://www.inkscape.org/namespaces/inkscape"
   xmlns:sodipodi="http://sodipodi.sourceforge.net/DTD/sodipodi-0.dtd"
   xmlns="http://www.w3.org/2000/svg"
   xmlns:svg="http://www.w3.org/2000/svg">
  <defs
     id="defs46" />
  <sodipodi:namedview
     id="namedview44"
     pagecolor="#ffffff"
     bordercolor="#666666"
     borderopacity="1.0"
     inkscape:showpageshadow="2"
     inkscape:pageopacity="0.0"
     inkscape:pagecheckerboard="0"
     inkscape:deskcolor="#d1d1d1"
     showgrid="false"
     inkscape:zoom="4.6425217"
     inkscape:cx="89.283373"
     inkscape:cy="34.787128"
     inkscape:window-width="1306"
     inkscape:window-height="704"
     inkscape:window-x="0"
     inkscape:window-y="0"
     inkscape:window-maximized="1"
     inkscape:current-layer="svg42" />
  <g
     stroke-width="2"
     fill="none"
     stroke-linecap="butt"
     id="g28"
     style="stroke:none"
     transform="translate(-25.736786,-20.519167)">
    <path
       stroke="#949393"
       vector-effect="non-scaling-stroke"
       d="m 36.16,119.34 q 8.67,7.18 20.1,7.52 21.53,0.63 43.05,0 c 25,-0.73 33.03,-14.56 33.15,-37.86 q 0.09,-17.1 -0.25,-34.18 C 131.73,30.01 119.33,20.53 95.75,20.52 Q 79.13,20.51 62.5,20.62 c -14.84,0.1 -28.02,3.37 -33.81,18.07 q -2.15,5.44 -2.61,17.41 -0.62,16.05 -0.12,32.11 c 0.36,11.84 0.62,23.18 10.2,31.13"
       id="path18"
       style="stroke:none" />
    <path
       stroke="#949393"
       vector-effect="non-scaling-stroke"
       d="M 122.57,51.95 C 122.33,40.51 115.99,31.15 104,30.47 Q 83.82,29.33 56.95,30.48 37.01,31.34 35.74,51.27 35.1,61.29 35.72,92.69 c 0.43,21.61 10.8,24.59 30.02,24.75 q 22.03,0.17 35.23,-0.17 c 18.07,-0.48 21.49,-11.77 21.8,-27.56 q 0.28,-14.39 -0.2,-37.76"
       id="path20"
       style="stroke:none" />
    <path
       stroke="#949393"
       vector-effect="non-scaling-stroke"
       d="m 114.02,45.24 a 6.29,6.29 0 0 0 -6.29,-6.29 6.29,6.29 0 0 0 -6.29,6.29 6.29,6.29 0 0 0 6.29,6.29 6.29,6.29 0 0 0 6.29,-6.29"
       id="path22"
       style="stroke:none" />
    <path
       stroke="#949393"
       vector-effect="non-scaling-stroke"
       d="M 106.54,73.75 A 27.33,27.33 0 0 0 79.21,46.42 27.33,27.33 0 0 0 51.88,73.75 27.33,27.33 0 0 0 79.21,101.08 27.33,27.33 0 0 0 106.54,73.75"
       id="path24"
       style="stroke:none" />
    <path
       stroke="#949393"
       vector-effect="non-scaling-stroke"
       d="M 96.91,73.76 A 17.72,17.72 0 0 0 79.19,56.04 17.72,17.72 0 0 0 61.47,73.76 17.72,17.72 0 0 0 79.19,91.48 17.72,17.72 0 0 0 96.91,73.76"
       id="path26"
       style="stroke:none" />
  </g>
  <path
     fill="#ffffff"
     d="m 10.423214,98.820833 c -9.57999971,-7.95 -9.83999971,-19.29 -10.19999971,-31.13 q -0.5,-16.06 0.12,-32.11 0.46,-11.97 2.61000001,-17.41 C 8.7432143,3.4708333 21.923214,0.20083333 36.763214,0.10083333 q 16.63,-0.11 33.25,-0.0999999967 C 93.593214,0.01083333 105.99321,9.4908333 106.47321,34.300833 q 0.34,17.08 0.25,34.18 c -0.12,23.3 -8.149996,37.129997 -33.149996,37.859997 q -21.52,0.63 -43.05,0 -11.43,-0.34 -20.1,-7.519997 z m 86.41,-67.39 c -0.24,-11.44 -6.58,-20.8 -18.57,-21.4799997 q -20.18,-1.14 -47.05,0.01 -19.94,0.8599997 -21.21,20.7899997 -0.6399997,10.02 -0.02,41.42 c 0.4299997,21.61 10.7999997,24.59 30.0199997,24.75 q 22.03,0.17 35.23,-0.17 c 18.07,-0.48 21.49,-11.77 21.8,-27.56 q 0.28,-14.39 -0.2,-37.76 z"
     id="path32" />
  <circle
     fill="#ffffff"
     cx="81.993217"
     cy="24.720835"
     r="6.29"
     id="circle36" />
  <path
     fill="#ffffff"
     d="m 80.803214,53.230833 a 27.33,27.33 0 0 1 -27.33,27.33 27.33,27.33 0 0 1 -27.33,-27.33 27.33,27.33 0 0 1 27.33,-27.33 27.33,27.33 0 0 1 27.33,27.33 z m -9.63,0.01 a 17.72,17.72 0 0 0 -17.72,-17.72 17.72,17.72 0 0 0 -17.72,17.72 17.72,17.72 0 0 0 17.72,17.72 17.72,17.72 0 0 0 17.72,-17.72 z"
     id="path38" />
</svg>
