<?xml version="1.0" encoding="UTF-8" standalone="no"?>
<svg
   version="1.1"
   viewBox="0 0 107.00423 106.88444"
   id="svg14"
   sodipodi:docname="icono_facebook.svg"
   inkscape:version="1.2.2 (732a01da63, 2022-12-09, custom)"
   width="107.00423"
   height="106.88444"
   xmlns:inkscape="http://www.inkscape.org/namespaces/inkscape"
   xmlns:sodipodi="http://sodipodi.sourceforge.net/DTD/sodipodi-0.dtd"
   xmlns="http://www.w3.org/2000/svg"
   xmlns:svg="http://www.w3.org/2000/svg">
  <defs
     id="defs18" />
  <sodipodi:namedview
     id="namedview16"
     pagecolor="#ffffff"
     bordercolor="#666666"
     borderopacity="1.0"
     inkscape:showpageshadow="2"
     inkscape:pageopacity="0.0"
     inkscape:pagecheckerboard="0"
     inkscape:deskcolor="#d1d1d1"
     showgrid="false"
     inkscape:zoom="3.2827586"
     inkscape:cx="51.02416"
     inkscape:cy="49.805673"
     inkscape:window-width="1306"
     inkscape:window-height="704"
     inkscape:window-x="0"
     inkscape:window-y="0"
     inkscape:window-maximized="1"
     inkscape:current-layer="svg14" />
  <g
     stroke-width="2"
     fill="none"
     stroke-linecap="butt"
     id="g6"
     style="stroke:none"
     transform="translate(-27.687882,-22.927782)">
    <path
       stroke="#969595"
       vector-effect="non-scaling-stroke"
       d="M 134.6921,35.1033 A 12.01,12.01 0 0 0 122.7031,23.0724 L 39.8632,22.9278 a 12.01,12.01 0 0 0 -12.0309,11.989 l -0.1444,82.7199 a 12.01,12.01 0 0 0 11.989,12.0309 l 82.8399,0.1446 a 12.01,12.01 0 0 0 12.0309,-11.989 l 0.1444,-82.7199"
       id="path2"
       style="stroke:none" />
    <path
       stroke="#969595"
       vector-effect="non-scaling-stroke"
       d="m 112.01,46.12 0.02,13.43 q 0.01,0.5 -0.49,0.48 C 107.02,59.87 96.39,58.6 95.85,65.31 q -0.5,6.24 -0.32,12.46 a 0.49,0.49 0 0 0 0.49,0.48 h 15.04 q 0.58,0 0.5,0.57 l -1.85,14.83 q -0.06,0.55 -0.62,0.55 l -12.93,0.16 q -0.66,0 -0.66,0.67 v 21.96 a 0.98,0.98 0 0 0 0.99,0.98 l 25.77,-0.3 q 0.49,0 0.49,-0.49 V 35.25 q 0,-0.5 -0.5,-0.5 h -82 q -0.5,0 -0.5,0.5 v 81.97 q 0,0.48 0.48,0.48 l 37.82,0.2 Q 79,117.91 79,116.95 V 95.28 Q 79,94.49 78.22,94.5 H 65.75 Q 65,94.5 65,93.75 v -15 a 0.5,0.5 0 0 1 0.5,-0.5 h 13 q 0.51,0 0.51,-0.51 C 78.98,72.06 78.63,65.28 79.67,60.39 83.21,43.83 97.81,44.54 111.5,45.57 q 0.51,0.04 0.51,0.55"
       id="path4"
       style="stroke:none" />
  </g>
  <path
     fill="#ffffff"
     d="M 106.85982,94.895418 A 12.01,12.01 0 0 1 94.828918,106.88442 l -82.8399,-0.1446 A 12.01,12.01 0 0 1 1.8217185e-5,94.708918 L 0.14441822,11.989018 A 12.01,12.01 0 0 1 12.175318,1.8217185e-5 L 95.015218,0.14461822 A 12.01,12.01 0 0 1 107.00422,12.175518 Z m -22.537702,-71.7032 0.02,13.43 q 0.01,0.5 -0.49,0.48 c -4.52,-0.16 -15.15,-1.43 -15.69,5.28 q -0.5,6.24 -0.32,12.46 a 0.49,0.49 0 0 0 0.49,0.48 h 15.04 q 0.58,0 0.5,0.57 l -1.85,14.83 q -0.06,0.55 -0.62,0.55 l -12.93,0.16 q -0.66,0 -0.66,0.67 v 21.96 a 0.98,0.98 0 0 0 0.99,0.98 l 25.77,-0.3 q 0.49,0 0.49,-0.49 v -81.93 q 0,-0.5 -0.5,-0.5 h -82 q -0.5,0 -0.5,0.5 v 81.97 q 0,0.48 0.48,0.48 l 37.82,0.2 q 0.95,0.01 0.95,-0.95 v -21.67 q 0,-0.79 -0.78,-0.78 h -12.47 q -0.75,0 -0.75,-0.75 v -15 a 0.5,0.5 0 0 1 0.5,-0.5 h 13 q 0.51,0 0.51,-0.51 c -0.03,-5.68 -0.38,-12.46 0.66,-17.35 3.54,-16.56 18.14,-15.85 31.83,-14.82 q 0.51,0.04 0.51,0.55 z"
     id="path10"
     style="stroke:none" />
</svg>
