<?xml version="1.0" encoding="UTF-8" standalone="no"?>
<svg
   version="1.1"
   viewBox="0.00 0.00 285.00 298.00"
   id="svg54"
   sodipodi:docname="icono3.svg"
   inkscape:version="1.2.2 (732a01da63, 2022-12-09, custom)"
   xmlns:inkscape="http://www.inkscape.org/namespaces/inkscape"
   xmlns:sodipodi="http://sodipodi.sourceforge.net/DTD/sodipodi-0.dtd"
   xmlns="http://www.w3.org/2000/svg"
   xmlns:svg="http://www.w3.org/2000/svg">
  <defs
     id="defs58" />
  <sodipodi:namedview
     id="namedview56"
     pagecolor="#ffffff"
     bordercolor="#666666"
     borderopacity="1.0"
     inkscape:showpageshadow="2"
     inkscape:pageopacity="0.0"
     inkscape:pagecheckerboard="0"
     inkscape:deskcolor="#d1d1d1"
     showgrid="false"
     inkscape:zoom="1.5973154"
     inkscape:cx="124.27101"
     inkscape:cy="136.16597"
     inkscape:window-width="1306"
     inkscape:window-height="704"
     inkscape:window-x="0"
     inkscape:window-y="0"
     inkscape:window-maximized="1"
     inkscape:current-layer="svg54" />
  <g
     stroke-width="2.00"
     fill="none"
     stroke-linecap="butt"
     id="g34">
    <path
       stroke="#665944"
       vector-effect="non-scaling-stroke"
       d="   M 267.50 147.38   A 119.19 119.19 0.0 0 0 148.31 28.19   A 119.19 119.19 0.0 0 0 29.12 147.38   A 119.19 119.19 0.0 0 0 148.31 266.57   A 119.19 119.19 0.0 0 0 267.50 147.38"
       id="path18"
       style="stroke-width:1.98207194;stroke-dasharray:none;opacity:1;stroke:none" />
    <path
       stroke="#665944"
       vector-effect="non-scaling-stroke"
       d="   M 260.79 147.37   A 112.49 112.49 0.0 0 0 148.30 34.88   A 112.49 112.49 0.0 0 0 35.81 147.37   A 112.49 112.49 0.0 0 0 148.30 259.86   A 112.49 112.49 0.0 0 0 260.79 147.37"
       id="path20"
       style="stroke-width:1.98207194;stroke-dasharray:none;opacity:1;stroke:none" />
    <path
       stroke="#665944"
       vector-effect="non-scaling-stroke"
       d="   M 125.49 80.27   C 115.67 79.45 116.25 67.27 126.23 67.26   Q 148.02 67.23 169.81 67.27   C 180.91 67.28 180.42 79.95 171.09 80.25   Q 170.57 80.27 170.57 80.79   Q 170.34 101.60 170.55 111.19   C 170.66 116.08 172.25 120.48 175.43 124.64   Q 187.55 140.46 199.79 156.17   Q 208.78 167.70 210.86 172.74   Q 216.16 185.58 211.12 200.07   Q 210.94 200.57 211.32 200.94   L 222.67 212.29   Q 223.02 212.65 223.35 212.26   Q 245.89 185.72 247.43 151.55   C 249.79 99.36 210.21 53.45 158.09 48.67   Q 116.11 44.82 83.22 72.43   A 0.26 0.26 0.0 0 0 83.20 72.82   L 124.62 114.24   Q 125.98 115.60 125.98 113.68   L 126.01 80.83   Q 126.01 80.31 125.49 80.27"
       id="path22"
       style="stroke-width:1.98207194;stroke-dasharray:none;opacity:1;stroke:none" />
    <path
       stroke="#665944"
       vector-effect="non-scaling-stroke"
       d="   M 139.23 106.03   C 139.18 115.47 138.31 123.94 133.18 130.68   Q 121.51 146.00 109.72 160.97   A 0.33 0.33 0.0 0 0 109.98 161.50   L 186.52 161.50   A 0.36 0.36 0.0 0 0 186.80 160.92   Q 175.86 146.85 164.83 132.67   C 159.73 126.11 157.75 119.45 157.50 110.59   Q 157.09 95.78 157.31 80.85   Q 157.31 80.25 156.72 80.25   L 139.76 80.25   A 0.53 0.53 0.0 0 0 139.23 80.78   Q 139.29 93.39 139.23 106.03"
       id="path24"
       style="stroke-width:1.98207194;stroke-dasharray:none;opacity:1;stroke:none" />
    <path
       stroke="#665944"
       vector-effect="non-scaling-stroke"
       d="   M 109.72 221.64   C 88.96 215.92 77.75 193.42 85.51 173.23   Q 87.28 168.64 92.73 161.53   Q 105.62 144.70 118.74 127.94   Q 119.10 127.48 118.69 127.07   L 74.06 82.43   A 0.60 0.59 42.2 0 0 73.19 82.47   C 34.93 127.51 43.04 195.68 92.08 229.14   C 129.56 254.71 178.93 252.00 213.27 222.31   Q 213.62 222.00 213.29 221.67   L 203.84 212.21   Q 203.50 211.88 203.16 212.21   Q 191.91 223.19 176.01 223.23   Q 152.03 223.30 128.05 223.22   Q 115.31 223.18 109.72 221.64"
       id="path26"
       style="stroke-width:1.98207194;stroke-dasharray:none;opacity:1;stroke:none" />
    <path
       stroke="#665944"
       vector-effect="non-scaling-stroke"
       d="   M 99.22 175.18   C 89.75 190.96 102.74 209.97 120.00 209.99   Q 146.86 210.04 173.73 209.98   Q 179.69 209.96 182.58 209.23   C 197.81 205.34 204.37 189.23 197.50 175.20   A 0.80 0.80 0.0 0 0 196.78 174.75   L 99.98 174.75   Q 99.48 174.75 99.22 175.18"
       id="path28"
       style="stroke-width:1.98207194;stroke-dasharray:none;opacity:1;stroke:none" />
    <path
       stroke="#665944"
       vector-effect="non-scaling-stroke"
       d="   M 154.07 187.22   A 5.78 5.78 0.0 0 0 148.29 181.44   A 5.78 5.78 0.0 0 0 142.51 187.22   A 5.78 5.78 0.0 0 0 148.29 193.00   A 5.78 5.78 0.0 0 0 154.07 187.22"
       id="path30"
       style="stroke-width:1.98207194;stroke-dasharray:none;opacity:1;stroke:none" />
    <path
       stroke="#665944"
       vector-effect="non-scaling-stroke"
       d="   M 127.71 196.02   A 5.77 5.77 0.0 0 0 121.94 190.25   A 5.77 5.77 0.0 0 0 116.17 196.02   A 5.77 5.77 0.0 0 0 121.94 201.79   A 5.77 5.77 0.0 0 0 127.71 196.02"
       id="path32"
       style="stroke-width:1.98207194;stroke-dasharray:none;opacity:1;stroke:none" />
  </g>
  <path
     fill="#bca177"
     d="   M 267.50 147.38   A 119.19 119.19 0.0 0 1 148.31 266.57   A 119.19 119.19 0.0 0 1 29.12 147.38   A 119.19 119.19 0.0 0 1 148.31 28.19   A 119.19 119.19 0.0 0 1 267.50 147.38   Z   M 260.79 147.37   A 112.49 112.49 0.0 0 0 148.30 34.88   A 112.49 112.49 0.0 0 0 35.81 147.37   A 112.49 112.49 0.0 0 0 148.30 259.86   A 112.49 112.49 0.0 0 0 260.79 147.37   Z"
     id="path38"
     style="stroke-width:0.99103597;stroke-dasharray:none;opacity:1;stroke:none" />
  <path
     fill="#bca177"
     d="   M 126.23 67.26   C 116.25 67.27 115.67 79.45 125.49 80.27   Q 126.01 80.31 126.01 80.83   L 125.98 113.68   Q 125.98 115.60 124.62 114.24   L 83.20 72.82   A 0.26 0.26 0.0 0 1 83.22 72.43   Q 116.11 44.82 158.09 48.67   C 210.21 53.45 249.79 99.36 247.43 151.55   Q 245.89 185.72 223.35 212.26   Q 223.02 212.65 222.67 212.29   L 211.32 200.94   Q 210.94 200.57 211.12 200.07   Q 216.16 185.58 210.86 172.74   Q 208.78 167.70 199.79 156.17   Q 187.55 140.46 175.43 124.64   C 172.25 120.48 170.66 116.08 170.55 111.19   Q 170.34 101.60 170.57 80.79   Q 170.57 80.27 171.09 80.25   C 180.42 79.95 180.91 67.28 169.81 67.27   Q 148.02 67.23 126.23 67.26   Z"
     id="path42"
     style="stroke-width:0.99103597;stroke-dasharray:none;opacity:1;stroke:none" />
  <path
     fill="#bca177"
     d="   M 139.23 106.03   Q 139.29 93.39 139.23 80.78   A 0.53 0.53 0.0 0 1 139.76 80.25   L 156.72 80.25   Q 157.31 80.25 157.31 80.85   Q 157.09 95.78 157.50 110.59   C 157.75 119.45 159.73 126.11 164.83 132.67   Q 175.86 146.85 186.80 160.92   A 0.36 0.36 0.0 0 1 186.52 161.50   L 109.98 161.50   A 0.33 0.33 0.0 0 1 109.72 160.97   Q 121.51 146.00 133.18 130.68   C 138.31 123.94 139.18 115.47 139.23 106.03   Z"
     id="path44"
     style="stroke-width:0.99103597;stroke-dasharray:none;opacity:1;stroke:none" />
  <path
     fill="#bca177"
     d="   M 128.05 223.22   Q 152.03 223.30 176.01 223.23   Q 191.91 223.19 203.16 212.21   Q 203.50 211.88 203.84 212.21   L 213.29 221.67   Q 213.62 222.00 213.27 222.31   C 178.93 252.00 129.56 254.71 92.08 229.14   C 43.04 195.68 34.93 127.51 73.19 82.47   A 0.60 0.59 42.2 0 1 74.06 82.43   L 118.69 127.07   Q 119.10 127.48 118.74 127.94   Q 105.62 144.70 92.73 161.53   Q 87.28 168.64 85.51 173.23   C 77.75 193.42 88.96 215.92 109.72 221.64   Q 115.31 223.18 128.05 223.22   Z"
     id="path46"
     style="stroke-width:0.99103597;stroke-dasharray:none;opacity:1;stroke:none" />
  <path
     fill="#bca177"
     d="   M 120.00 209.99   C 102.74 209.97 89.75 190.96 99.22 175.18   Q 99.48 174.75 99.98 174.75   L 196.78 174.75   A 0.80 0.80 0.0 0 1 197.50 175.20   C 204.37 189.23 197.81 205.34 182.58 209.23   Q 179.69 209.96 173.73 209.98   Q 146.86 210.04 120.00 209.99   Z   M 154.07 187.22   A 5.78 5.78 0.0 0 0 148.29 181.44   A 5.78 5.78 0.0 0 0 142.51 187.22   A 5.78 5.78 0.0 0 0 148.29 193.00   A 5.78 5.78 0.0 0 0 154.07 187.22   Z   M 127.71 196.02   A 5.77 5.77 0.0 0 0 121.94 190.25   A 5.77 5.77 0.0 0 0 116.17 196.02   A 5.77 5.77 0.0 0 0 121.94 201.79   A 5.77 5.77 0.0 0 0 127.71 196.02   Z"
     id="path48"
     style="stroke-width:0.99103597;stroke-dasharray:none;opacity:1;stroke:none" />
</svg>
