<?xml version="1.0" encoding="UTF-8" standalone="no"?>
<svg
   version="1.1"
   viewBox="0 0 100.1 100.16"
   id="svg4675"
   sodipodi:docname="icono_tiktok.svg"
   width="100.1"
   height="100.16"
   inkscape:version="1.2.2 (732a01da63, 2022-12-09, custom)"
   xmlns:inkscape="http://www.inkscape.org/namespaces/inkscape"
   xmlns:sodipodi="http://sodipodi.sourceforge.net/DTD/sodipodi-0.dtd"
   xmlns="http://www.w3.org/2000/svg"
   xmlns:svg="http://www.w3.org/2000/svg">
  <defs
     id="defs4679" />
  <sodipodi:namedview
     id="namedview4677"
     pagecolor="#ffffff"
     bordercolor="#666666"
     borderopacity="1.0"
     inkscape:showpageshadow="2"
     inkscape:pageopacity="0.0"
     inkscape:pagecheckerboard="0"
     inkscape:deskcolor="#d1d1d1"
     showgrid="false"
     inkscape:zoom="3.2827586"
     inkscape:cx="50.110294"
     inkscape:cy="50.110294"
     inkscape:window-width="1306"
     inkscape:window-height="704"
     inkscape:window-x="0"
     inkscape:window-y="0"
     inkscape:window-maximized="1"
     inkscape:current-layer="svg4675" />
  <g
     stroke-width="2"
     fill="none"
     stroke-linecap="butt"
     id="g4665"
     style="stroke:none"
     transform="translate(-28.26,-22.51)">
    <path
       stroke="#969494"
       vector-effect="non-scaling-stroke"
       d="M 128.36,35.26 A 12.75,12.75 0 0 0 115.61,22.51 H 41.01 A 12.75,12.75 0 0 0 28.26,35.26 v 74.66 a 12.75,12.75 0 0 0 12.75,12.75 h 74.6 a 12.75,12.75 0 0 0 12.75,-12.75 V 35.26"
       id="path4659"
       style="stroke:none" />
    <path
       stroke="#969494"
       vector-effect="non-scaling-stroke"
       d="m 119.99,35.1 a 4.34,4.34 0 0 0 -4.34,-4.34 h -74.8 a 4.34,4.34 0 0 0 -4.34,4.34 v 74.88 a 4.34,4.34 0 0 0 4.34,4.34 h 74.8 a 4.34,4.34 0 0 0 4.34,-4.34 V 35.1"
       id="path4661"
       style="stroke:none" />
    <path
       stroke="#969494"
       vector-effect="non-scaling-stroke"
       d="m 87,57.96 c 5.79,6.22 15.6,6.32 23.75,6.29 a 1,1 0 0 0 1,-1 v -6.99 a 0.51,0.5 -0.6 0 0 -0.52,-0.5 C 99.86,56.1 86.26,55.34 86.73,39.96 q 0.03,-0.71 -0.68,-0.71 h -7.28 q -0.51,0 -0.51,0.51 -0.02,21.2 -0.01,42.4 C 78.28,107.4 46.34,97.83 54.61,79.71 q 3.79,-8.32 14.75,-6.72 0.54,0.08 0.55,-0.47 l 0.12,-7.19 q 0.01,-0.56 -0.54,-0.66 c -18.48,-3.06 -31.52,17.22 -20.55,32.7 9.43,13.31 31.21,10.34 36.46,-5.41 q 1.1,-3.3 1.1,-10.53 -0.01,-11.66 0.01,-23.27 A 0.29,0.28 -66.7 0 1 87,57.96"
       id="path4663"
       style="stroke:none" />
  </g>
  <path
     fill="#ffffff"
     d="M 100.1,87.41 A 12.75,12.75 0 0 1 87.35,100.16 H 12.75 A 12.75,12.75 0 0 1 0,87.41 V 12.75 A 12.75,12.75 0 0 1 12.75,0 h 74.6 A 12.75,12.75 0 0 1 100.1,12.75 Z M 91.73,12.59 A 4.34,4.34 0 0 0 87.39,8.25 h -74.8 a 4.34,4.34 0 0 0 -4.34,4.34 v 74.88 a 4.34,4.34 0 0 0 4.34,4.34 h 74.8 a 4.34,4.34 0 0 0 4.34,-4.34 z"
     id="path4669"
     style="stroke:none" />
  <path
     fill="#ffffff"
     d="m 58.74,35.45 a 0.28,0.29 23.3 0 0 -0.49,0.2 q -0.02,11.61 -0.01,23.27 0,7.23 -1.1,10.53 C 51.89,85.2 30.11,88.17 20.68,74.86 9.71,59.38 22.75,39.1 41.23,42.16 q 0.55,0.1 0.54,0.66 l -0.12,7.19 q -0.01,0.55 -0.55,0.47 -10.96,-1.6 -14.75,6.72 c -8.27,18.12 23.67,27.69 23.64,2.45 q -0.01,-21.2 0.01,-42.4 0,-0.51 0.51,-0.51 h 7.28 q 0.71,0 0.68,0.71 C 58,32.83 71.6,33.59 82.97,33.25 a 0.5,0.51 89.4 0 1 0.52,0.5 v 6.99 a 1,1 0 0 1 -1,1 C 74.34,41.77 64.53,41.67 58.74,35.45 Z"
     id="path4673"
     style="stroke:none" />
</svg>
