<?xml version="1.0" encoding="UTF-8" standalone="no"?>
<svg
   version="1.1"
   viewBox="0.00 0.00 285.00 298.00"
   id="svg46"
   sodipodi:docname="icono2.svg"
   inkscape:version="1.2.2 (732a01da63, 2022-12-09, custom)"
   xmlns:inkscape="http://www.inkscape.org/namespaces/inkscape"
   xmlns:sodipodi="http://sodipodi.sourceforge.net/DTD/sodipodi-0.dtd"
   xmlns="http://www.w3.org/2000/svg"
   xmlns:svg="http://www.w3.org/2000/svg">
  <defs
     id="defs50" />
  <sodipodi:namedview
     id="namedview48"
     pagecolor="#ffffff"
     bordercolor="#666666"
     borderopacity="1.0"
     inkscape:showpageshadow="2"
     inkscape:pageopacity="0.0"
     inkscape:pagecheckerboard="0"
     inkscape:deskcolor="#d1d1d1"
     showgrid="false"
     inkscape:zoom="1.1294726"
     inkscape:cx="247.01795"
     inkscape:cy="192.56776"
     inkscape:window-width="1306"
     inkscape:window-height="704"
     inkscape:window-x="0"
     inkscape:window-y="0"
     inkscape:window-maximized="1"
     inkscape:current-layer="svg46" />
  <path
     fill="#bca177"
     d="   M 261.68 149.23   A 119.16 119.16 0.0 0 1 142.52 268.39   A 119.16 119.16 0.0 0 1 23.36 149.23   A 119.16 119.16 0.0 0 1 142.52 30.07   A 119.16 119.16 0.0 0 1 261.68 149.23   Z   M 177.32 106.16   L 213.92 69.41   Q 214.23 69.10 213.90 68.82   Q 179.27 39.11 134.43 42.16   C 84.33 45.57 42.32 84.93 36.09 134.86   Q 30.09 182.91 62.01 220.54   A 0.55 0.55 0.0 0 0 62.81 220.57   L 91.29 192.09   Q 91.72 191.66 91.91 192.24   L 95.67 203.81   A 0.84 0.83 58.6 0 1 95.47 204.66   L 71.20 228.93   Q 70.89 229.24 71.22 229.53   C 105.30 259.63 154.57 265.25 194.07 243.57   C 255.02 210.11 268.11 130.04 222.93 77.95   Q 222.58 77.55 222.20 77.92   L 190.99 109.14   Q 190.67 109.45 190.23 109.36   L 177.49 106.73   Q 176.88 106.60 177.32 106.16   Z"
     id="path34" />
  <path
     fill="#bca177"
     d="   M 142.26 109.77   C 136.38 107.16 131.48 102.28 129.23 96.31   C 124.06 82.55 132.62 67.46 142.05 58.07   Q 142.42 57.70 142.79 58.06   C 157.35 72.03 166.18 97.84 143.16 109.74   Q 142.72 109.97 142.26 109.77   Z"
     id="path38" />
  <path
     fill="#bca177"
     d="   M 142.82 134.06   C 146.32 112.99 169.28 109.13 186.49 114.90   Q 186.84 115.02 186.76 115.38   C 182.29 134.89 165.01 155.99 143.02 141.52   Q 142.61 141.25 142.19 141.51   C 119.63 155.39 102.93 135.64 98.25 115.26   Q 98.16 114.89 98.52 114.78   C 116.48 109.20 137.92 112.81 142.42 134.07   Q 142.65 135.12 142.82 134.06   Z"
     id="path40" />
  <path
     fill="#bca177"
     d="m 144.52056,172.61 a 0.0606162,0.0505135 48.2 0 0 0.11,0.01 c 4.92,-21.37 25.61,-24.92 43.89,-19.53 q 0.46,0.13 0.36,0.61 c -3.81,17.53 -19.01,38.09 -39.73,28.6 -1.15,-0.53 -2.68,-1.69 -4.1,-2.46 q -0.48,-0.26 -0.93,0.05 c -21.55,14.93 -39.68,-7.04 -43.71,-26.2 q -0.09,-0.44 0.35,-0.58 c 17.48,-5.33 39.8,-1.9 43.76,19.5 z"
     id="path42" />
  <path
     fill="#bca177"
     d="   M 142.25 209.78   A 0.30 0.30 0.0 0 0 142.83 209.78   C 147.95 189.54 169.00 186.12 186.56 191.66   Q 186.99 191.80 186.88 192.23   C 182.47 209.51 168.76 229.52 147.67 221.03   A 0.50 0.49 -79.4 0 0 146.99 221.50   L 147.33 240.20   Q 147.34 241.00 146.55 241.00   L 138.60 241.00   Q 137.96 241.00 137.96 240.36   L 138.02 221.53   A 0.56 0.56 0.0 0 0 137.24 221.02   C 116.63 229.79 102.09 209.09 98.20 192.17   Q 98.09 191.68 98.57 191.54   C 116.20 186.20 136.99 189.45 142.25 209.78   Z"
     id="path44" />
</svg>
